<!-- Generated by IcoMoon.io -->
<svg version="1.1" xmlns="http://www.w3.org/2000/svg" width="69" height="64" viewBox="0 0 69 64">
<title>contactus</title>
<path d="M34.887 4.387c-15.342 0-28.359 12.552-28.359 28.359 0 6.044 1.861 11.159 5.115 15.806l-3.719 11.159 11.159-3.719c4.648 3.254 9.763 5.115 15.806 5.115 15.342 0 28.359-12.552 28.359-28.359s-13.017-28.359-28.359-28.359z"></path>
<path fill="#ededed" d="M29.308 32.746c0 2.053-1.666 3.719-3.719 3.719s-3.719-1.666-3.719-3.719c0-2.053 1.666-3.719 3.719-3.719s3.719 1.666 3.719 3.719z"></path>
<path fill="#ededed" d="M38.606 32.746c0 2.053-1.666 3.719-3.719 3.719s-3.719-1.666-3.719-3.719c0-2.053 1.666-3.719 3.719-3.719s3.719 1.666 3.719 3.719z"></path>
<path fill="#ededed" d="M47.904 32.746c0 2.053-1.666 3.719-3.719 3.719s-3.719-1.666-3.719-3.719c0-2.053 1.666-3.719 3.719-3.719s3.719 1.666 3.719 3.719z"></path>
</svg>
