<!-- Generated by IcoMoon.io -->
<svg version="1.1" xmlns="http://www.w3.org/2000/svg" width="69" height="64" viewBox="0 0 69 64">
<title>dream</title>
<path d="M56.642 19.882c-0.718-6.7-6.461-11.964-13.639-11.964-4.546 0-8.614 2.154-11.007 5.743 0.239 0 0.479 0 0.957 0 10.289 0 18.904 6.7 21.536 16.271 2.871 0.718 5.504 2.154 7.657 4.307 0.239 0.239 0.478 0.478 0.478 0.478 1.675-1.675 2.632-3.829 2.632-6.221 0-4.786-3.829-8.614-8.614-8.614v0z"></path>
<path d="M51.138 33.761c-1.196-9.093-8.854-16.032-18.186-16.032s-16.989 7.178-17.946 16.032c-6.461 0-11.725 5.264-11.725 11.725s5.264 11.725 11.725 11.725h36.132c6.461 0 11.725-5.264 11.725-11.725 0-6.7-5.264-11.964-11.725-11.725v0z"></path>
</svg>
