<!-- Generated by IcoMoon.io -->
<svg version="1.1" xmlns="http://www.w3.org/2000/svg" width="69" height="64" viewBox="0 0 69 64">
<title>editprofile</title>
<path d="M41.86 50.358c-0.34 0.68-1.020 1.020-1.7 1.020l-3.4 1.020c-0.34 0-0.68 0-0.68 0-0.68 0-1.36-0.34-1.7-0.68-0.68-0.34-1.020-1.36-1.36-2.040l-0.34-3.4c0-0.68 0-1.36 0.68-2.040v-0.34h-11.899c-1.020 0-1.7-0.68-1.7-1.7s0.68-1.7 1.7-1.7h14.278l3.060-4.419h-17.338c-1.020 0-1.7-0.68-1.7-1.7s0.68-1.7 1.7-1.7h19.718l7.479-10.539v-7.819c0-1.36-1.020-2.38-2.38-2.38h-5.779v4.419c0 2.040-1.7 3.739-3.739 3.739h-11.559c-2.040 0-3.739-1.7-3.739-3.739v-4.419h-5.779c-1.36 0-2.38 1.020-2.38 2.38v40.455c0 1.36 1.020 2.38 2.38 2.38h30.596c1.36 0 2.38-1.020 2.38-2.38v-14.278l-6.799 9.859zM21.802 24.861h19.378c1.020 0 1.7 0.68 1.7 1.7s-0.68 1.7-1.7 1.7h-19.378c-1.020 0-1.7-0.68-1.7-1.7s0.68-1.7 1.7-1.7z"></path>
<path d="M25.882 17.722h11.559c1.020 0 1.7-0.68 1.7-1.7v-6.459c0-1.020-0.68-1.7-1.7-1.7h-1.7c0-2.38-1.7-4.080-4.080-4.080s-4.080 1.7-4.080 4.080h-1.7c-1.020 0-1.7 0.68-1.7 1.7v6.459c0 1.020 0.68 1.7 1.7 1.7zM31.321 6.503c1.020 0 1.7 0.68 1.7 1.7h-3.739c0.34-1.020 1.020-1.7 2.040-1.7z"></path>
<path d="M63.617 14.662c0-0.34-0.34-0.68-0.34-0.68l-2.72-2.040c-0.34 0-0.34-0.34-0.68-0.34s-0.68 0-1.020 0.34l-20.398 29.236 4.759 3.4 20.398-29.236c0 0 0-0.34 0-0.68z"></path>
<path d="M35.060 46.278l0.34 3.4c0 0.34 0 0.34 0.34 0.34h0.34c0 0 0 0 0.34 0l3.4-1.020c0 0 0.34 0 0.34-0.34l1.36-1.7-4.759-3.4-1.36 1.7c-0.34 0.68-0.34 0.68-0.34 1.020z"></path>
</svg>
