<!-- Generated by IcoMoon.io -->
<svg version="1.1" xmlns="http://www.w3.org/2000/svg" width="69" height="64" viewBox="0 0 69 64">
<title>home</title>
<path d="M13.833 55.118c0 0 0 1.272 1.272 1.272 1.485 0 14.418 0 14.418 0v-11.874c0 0-0.212-1.908 1.696-1.908h5.937c2.332 0 2.12 1.908 2.12 1.908v11.874c0 0 12.298 0 14.206 0 1.485 0 1.485-1.696 1.485-1.696v-21.839l-19.931-17.811-21.204 17.811v22.264z"></path>
<path d="M6.2 31.37c0 0 1.696 3.393 5.725 0l23.324-19.719 21.839 19.719c4.453 3.18 6.149 0 6.149 0l-28.201-25.444-28.837 25.444z"></path>
<path d="M56.664 11.439h-5.725v6.785l5.725 4.877z"></path>
</svg>
