<!-- Generated by IcoMoon.io -->
<svg version="1.1" xmlns="http://www.w3.org/2000/svg" width="69" height="64" viewBox="0 0 69 64">
<title>like</title>
<path d="M56.748 24.787h-18.513c0 0 0.962-4.328 1.202-6.492 0.24-1.443 0.24-2.885-0.24-4.328-0.481-2.164-0.962-3.366-1.923-5.049-0.481-0.962-1.443-1.443-2.404-1.443h-3.607c-1.443 0-2.645 1.202-2.645 2.645 0 2.404 0 5.771 0 5.771-1.443 2.885-3.125 5.771-4.809 8.656-0.962 1.202-1.683 2.404-2.645 3.607-0.481 0.481-0.721 1.202-0.721 1.683v22.841c0 0.721 0.24 1.443 0.721 1.923 0.721 0.721 1.923 1.683 4.087 1.683 6.492 0 17.071 0 24.524 0 0.962 0 1.923-0.481 2.164-1.202l6.732-11.3c0.481-0.721 0.721-1.683 0.721-2.645v-13.705c0-1.443-1.202-2.645-2.645-2.645z"></path>
<path d="M14.672 28.634h-2.404c-1.443 0-2.645 1.202-2.645 2.645v22.36c0 1.443 1.202 2.645 2.645 2.645h2.404c1.443 0 2.645-1.202 2.645-2.645v-22.36c-0.24-1.683-1.202-2.645-2.645-2.645z"></path>
</svg>
