<?xml version="1.0" encoding="utf-8"?>
<!-- Generator: Adobe Illustrator 21.0.2, SVG Export Plug-In . SVG Version: 6.00 Build 0)  -->
<svg version="1.1" id="Layer_1" xmlns="http://www.w3.org/2000/svg" xmlns:xlink="http://www.w3.org/1999/xlink" x="0px" y="0px"
	 viewBox="0 0 91 60.7" style="enable-background:new 0 0 91 60.7;" xml:space="preserve">
<style type="text/css">
	.st0{fill:#FFFFFF;}
</style>
<g>
	<g>
		<path class="st0" d="M18.5,25.7c1.9,0,3.5,1.6,3.5,3.5s-1.6,3.5-3.5,3.5S15,31.1,15,29.2C15,27.2,16.6,25.7,18.5,25.7z M9.4,49.7
			h41.4c-0.1-0.4-0.2-0.9-0.2-1.3v-3.6H15.3c0.1-0.3,0.1-0.7,0.1-1.1c0-3.2-2.6-5.8-5.8-5.8c-0.3,0-0.7,0-1,0.1V20.3
			c0.3,0.1,0.7,0.1,1,0.1c3.2,0,5.8-2.6,5.8-5.8c0-0.4,0-0.7-0.1-1.1H58c-0.1,0.4-0.2,0.9-0.2,1.4c0,3.2,2.6,5.8,5.8,5.8
			c0.5,0,1-0.1,1.4-0.2v5.9c0.4-0.1,0.9-0.2,1.4-0.2H70V14.4c0-3.2-2.6-5.7-5.7-5.7H9.4c-3.2,0-5.7,2.6-5.7,5.7v29.6
			C3.7,47.1,6.2,49.7,9.4,49.7z M65.1,30.6v17.7c0,0.7,0.6,1.3,1.3,1.3h5.9c0.7,0,1.3-0.6,1.3-1.3V30.6c0-0.7-0.6-1.3-1.3-1.3h-5.9
			C65.7,29.3,65.1,29.9,65.1,30.6z M55,35.5c-0.7,0-1.3,0.6-1.3,1.3v11.5c0,0.7,0.6,1.3,1.3,1.3h5.9c0.7,0,1.3-0.6,1.3-1.3V36.8
			c0-0.7-0.6-1.3-1.3-1.3H55z M81.6,11.5c-0.4-0.6-1.2-0.6-1.6,0l-6.8,9.9c-0.4,0.7,0,1.6,0.8,1.6h2.5v25.3c0,0.7,0.6,1.3,1.3,1.3
			h5.9c0.7,0,1.3-0.6,1.3-1.3V23h2.5c0.8,0,1.3-0.9,0.8-1.6L81.6,11.5z M36.8,16.6c6.9,0,12.6,5.6,12.6,12.6s-5.6,12.6-12.6,12.6
			s-12.6-5.6-12.6-12.6S29.9,16.6,36.8,16.6z M40.8,23.9l-5.6,5.6l-2.4-2.4l-2.5,2.4l2.4,2.4l2.4,2.5l2.5-2.4l5.6-5.6L40.8,23.9z"/>
	</g>
</g>
</svg>
