<?xml version="1.0" encoding="utf-8"?>
<!-- Generator: Adobe Illustrator 21.0.2, SVG Export Plug-In . SVG Version: 6.00 Build 0)  -->
<svg version="1.1" id="Layer_1" xmlns="http://www.w3.org/2000/svg" xmlns:xlink="http://www.w3.org/1999/xlink" x="0px" y="0px"
	 viewBox="0 0 25 22.9" style="enable-background:new 0 0 25 22.9;" xml:space="preserve">
<style type="text/css">
	.st0{fill:#66BC51;}
</style>
<g id="GuWRlW_1_">
	<g>
		<path class="st0" d="M0,10.7C0.1,10.1,0.2,9.6,0.4,9c1.2-4.5,5.1-7.8,9.7-8.2C10.8,0.8,11,1.1,11,1.8c0,3.1,0,6.1,0,9.2
			c0,0.6,0.2,1.1,0.6,1.5c2.2,2.1,4.3,4.3,6.4,6.4c0.7,0.7,0.7,1-0.1,1.6c-3.3,2.6-7,3.2-10.9,1.6c-3.9-1.5-6.2-4.5-6.9-8.7
			c0-0.1-0.1-0.2-0.1-0.3C0,12.3,0,11.5,0,10.7z"/>
		<path class="st0" d="M25,13.8c-0.1,0.5-0.2,1-0.4,1.4c-0.4,1.6-1.1,3-2.2,4.2c-0.5,0.6-0.8,0.6-1.3,0.1c-1.9-1.9-3.9-3.9-5.8-5.8
			c-0.2-0.2-0.4-0.7-0.3-0.9c0.1-0.2,0.5-0.4,0.8-0.4c2.7,0,5.4,0,8.2,0c0.3,0,0.6,0.2,0.9,0.4C25,13.1,25,13.5,25,13.8z"/>
		<path class="st0" d="M18,11c-1.5,0-3,0-4.4,0c-0.9,0-1.1-0.2-1.1-1c0-3,0-6,0-8.9c0-0.9,0.2-1.1,1.1-1c5.1,0.5,9.1,4.4,9.8,9.5
			c0,0.2,0,0.4,0,0.6c0,0.7-0.1,0.9-0.9,0.9C21.1,11,19.6,11,18,11z"/>
	</g>
</g>
</svg>
