<!-- Generated by IcoMoon.io -->
<svg version="1.1" xmlns="http://www.w3.org/2000/svg" width="69" height="64" viewBox="0 0 69 64">
<title>taxation</title>
<path d="M31.3 42.975c0 7.279 5.696 12.975 12.975 12.975s12.975-5.696 12.975-12.975-5.696-12.975-12.975-12.975-12.975 5.696-12.975 12.975v0zM39.211 37.911c0.316-0.316 0.633-0.633 1.266-0.633 0.316 0 0.95 0.316 1.266 0.633s0.633 0.633 0.633 1.266c0 0.316-0.316 0.95-0.633 1.266s-0.633 0.633-1.266 0.633c-0.316 0-0.95-0.316-1.266-0.633s-0.633-0.633-0.633-1.266 0.316-0.95 0.633-1.266v0zM49.338 48.038c-0.316 0.316-0.633 0.633-1.266 0.633-0.316 0-0.95-0.316-1.266-0.633s-0.633-0.633-0.633-1.266c0-0.316 0.316-0.95 0.633-1.266s0.633-0.633 1.266-0.633c0.316 0 0.95 0.316 1.266 0.633s0.633 0.633 0.633 1.266-0.316 0.95-0.633 1.266v0zM49.338 37.911c0.633 0.633 0.633 1.899 0 2.532l-7.595 7.595c-0.316 0.316-0.633 0.633-1.266 0.633s-0.95-0.316-1.266-0.633-0.633-1.899 0-2.532l7.595-7.595c0.95-0.633 1.899-0.633 2.532 0v0z"></path>
<path d="M27.819 42.975c0-9.177 7.279-16.456 16.456-16.456 0.316 0 0.633 0 0.95 0v-18.038c0-0.95-0.633-1.582-1.582-1.582h-29.43c-0.95 0-1.582 0.633-1.582 1.582v45.886c0 0.95 0.633 1.582 1.582 1.582h20.57c-4.431-2.848-6.962-7.595-6.962-12.975v0zM22.123 16.076h12.342c0.95 0 1.582 0.633 1.582 1.582s-0.633 1.582-1.582 1.582h-12.342c-0.95 0-1.582-0.633-1.582-1.582-0.317-0.95 0.633-1.582 1.582-1.582v0zM22.123 25.253h12.342c0.95 0 1.582 0.633 1.582 1.582s-0.633 1.582-1.582 1.582h-12.342c-0.95 0-1.582-0.633-1.582-1.582-0.317-0.95 0.633-1.582 1.582-1.582v0zM24.971 37.911h-3.165c-0.95 0-1.582-0.633-1.582-1.582s0.633-1.582 1.582-1.582h3.165c0.95 0 1.582 0.633 1.582 1.582 0.317 0.633-0.633 1.582-1.582 1.582v0z"></path>
</svg>
