<!-- Generated by IcoMoon.io -->
<svg version="1.1" xmlns="http://www.w3.org/2000/svg" width="69" height="64" viewBox="0 0 69 64">
<title>tcs</title>
<path d="M38.395 16.566h-15.77c-1.006 0-2.013 1.006-2.013 2.013s1.006 2.013 2.013 2.013h15.77c1.007 0 2.013-1.006 2.013-2.013s-1.007-2.013-2.013-2.013z"></path>
<path d="M40.409 26.632c0-1.006-1.007-2.013-2.013-2.013h-15.77c-1.006 0-2.013 1.006-2.013 2.013s1.006 2.013 2.013 2.013h15.77c1.007 0.336 2.013-0.671 2.013-2.013z"></path>
<path d="M30.343 36.697c1.006 0 2.013-1.007 2.013-2.013s-1.006-2.013-2.013-2.013h-8.053c-1.006 0-2.013 1.007-2.013 2.013s1.006 2.013 2.013 2.013h8.053z"></path>
<path d="M46.448 44.079l-2.349 1.342v5.368h-27.513v-37.915h27.513v8.388l4.362-7.382v-3.020c0-1.007-1.007-2.013-2.013-2.013h-31.54c-1.006 0-2.013 1.006-2.013 2.013v42.277c0 1.007 1.007 2.013 2.013 2.013h31.54c1.007 0 2.013-1.007 2.013-2.013v-11.744l-1.007 1.678c-0.336 0.336-0.671 0.671-1.007 1.007z"></path>
<path d="M58.863 18.244c0-0.336-0.336-2.013-3.020-3.355-2.684-1.678-4.362-1.006-4.697-1.006s-0.336 0.336-0.671 0.336l-13.086 22.816v0.336l-0.336 8.388c0 0.336 0.336 0.671 0.671 1.007s0.671 0.336 1.007 0l7.046-4.697 0.336-0.336 13.086-22.816c-0.336 0-0.336-0.336-0.336-0.671zM41.080 43.072c-0.336-0.336-0.671-0.671-1.342-0.671-0.336-0.336-1.007-0.336-1.342-0.671v-2.349c0.671 0 1.342 0.336 2.349 1.007s1.678 1.342 2.013 1.678l-1.678 1.007z"></path>
<path d="M27.323 46.428c0 0.336 0.671 0.671 1.006 0.671s0.671 0 1.006-0.336c1.678-0.671 3.691 0 5.368 0 1.007 0 1.007-1.678 0-1.678-2.013 0-3.691-0.671-5.704-0.336v-0.336c-0.336-0.671-1.006-0.671-1.342-0.671 0 0 0 0 0-0.336s-0.336-0.336-0.336-0.336c0.671-1.007 1.006-2.013 0.671-2.684 0-0.336-0.336-0.336-0.671-0.336-1.006 0-2.013 1.007-2.684 1.678-1.678 1.678-3.355 3.691-4.698 5.368-0.671 0.671 0.671 1.678 1.342 0.671 1.342-1.678 2.684-3.355 4.026-4.697-0.336 0.671-0.671 1.007-1.006 1.678-0.671 1.007 0.671 1.678 1.342 0.671 0-0.336 0.336-0.336 0.671-0.336v0.336c0 0 0 0 0 0.336-0.336 1.007 1.006 1.342 1.342 0.671 0-0.336 0.336-0.336 0.336-0.671-0.671 0.336-0.671 0.671-0.671 0.671z"></path>
</svg>
